<svg width="20" height="20" viewBox="0 0 20 20" fill="none" xmlns="http://www.w3.org/2000/svg">
<path d="M2.58813 14.8239C1.16107 14.8239 0 15.985 0 17.4121C0 18.8392 1.16107 20 2.58813 20C4.0152 20 5.17627 18.8392 5.17627 17.4121C5.17627 15.985 4.015 14.8239 2.58813 14.8239Z" fill="white"/>
<path d="M0.430389 7.45099C0.318787 7.44833 0.212099 7.48867 0.132032 7.56607C0.0521699 7.64328 0.00732422 7.74955 0.00732422 7.86054V11.1814C0.00732422 11.4001 0.17954 11.5803 0.398239 11.5905C4.76691 11.7898 8.21163 15.2345 8.41087 19.6032C8.42091 19.8217 8.60111 19.994 8.82001 19.994H12.1411C12.252 19.994 12.3585 19.9489 12.4355 19.8695C12.5125 19.79 12.5539 19.6819 12.5506 19.5711C12.4447 16.3872 11.1401 13.3875 8.87735 11.1245C6.61418 8.86149 3.61443 7.55706 0.430389 7.45099Z" fill="white"/>
<path d="M14.1403 5.86122C10.4679 2.18917 5.59733 0.107824 0.425146 0.0013403C0.314568 -0.00398389 0.208495 0.0410669 0.130271 0.118268C0.0516381 0.195468 0.00720215 0.300723 0.00720215 0.410688V3.7297C0.00720215 3.95189 0.184332 4.13352 0.406511 4.13926C8.72054 4.34813 15.6536 11.2815 15.862 19.5948C15.8672 19.8169 16.0492 19.9939 16.2714 19.9939H19.5904C19.7003 19.9939 19.806 19.9496 19.8832 19.8708C19.96 19.7922 20.0024 19.6859 19.9999 19.5757C19.893 14.4033 17.8117 9.53245 14.1403 5.86122Z" fill="white"/>
</svg>
