<svg width="20" height="19" viewBox="0 0 20 19" fill="none" xmlns="http://www.w3.org/2000/svg">
<path d="M18.3012 0.001639C18.0122 0.0142102 17.747 0.097328 17.514 0.189157C17.2987 0.273924 16.5258 0.598793 15.2949 1.11502C14.0641 1.63126 12.4332 2.31572 10.6947 3.04685C7.21786 4.50911 3.31076 6.15397 1.30876 6.99644C1.24001 7.02508 0.960802 7.11055 0.652427 7.34608C0.343337 7.58215 0 8.09449 0 8.65479C0 9.10679 0.225643 9.56713 0.498111 9.83069C0.770579 10.0942 1.04672 10.2175 1.27751 10.3092V10.3073C2.05764 10.6181 4.38735 11.5503 4.94204 11.7723C5.13879 12.3619 5.98345 14.8859 6.18439 15.5207H6.18243C6.32446 15.9699 6.4629 16.2627 6.65515 16.5071C6.75127 16.6293 6.86601 16.74 7.00676 16.8274C7.06076 16.861 7.12055 16.887 7.18061 16.9114C7.18898 16.915 7.1976 16.9159 7.206 16.9192L7.18256 16.9134C7.19997 16.9204 7.2156 16.9307 7.23335 16.9368C7.26227 16.9468 7.28231 16.9465 7.32125 16.9544C7.45827 16.9966 7.59505 17.0247 7.72169 17.0247C8.26537 17.0247 8.59876 16.7298 8.59876 16.7298L8.62024 16.7141L10.9682 14.7276L13.8436 17.388C13.8961 17.4622 14.3075 18.019 15.2598 18.019C15.828 18.019 16.2772 17.7377 16.5646 17.4427C16.852 17.1477 17.0311 16.8459 17.1116 16.4368L17.1135 16.4348C17.1777 16.1046 19.9303 2.2831 19.9303 2.2831L19.9244 2.30654C20.0101 1.92416 20.0354 1.55437 19.9342 1.17753C19.833 0.800689 19.5599 0.43293 19.231 0.239943C18.9021 0.0469557 18.5902 -0.0109326 18.3012 0.001639ZM17.9066 2.1913C17.7978 2.73738 15.3321 15.1246 15.1797 15.9016L11.0268 12.0594L8.2198 14.4327L8.99725 11.3933C8.99725 11.3933 14.3605 5.96468 14.6835 5.64865C14.9436 5.39563 14.998 5.30693 14.998 5.21893C14.998 5.10191 14.9378 5.01774 14.7988 5.01774C14.6738 5.01774 14.504 5.13753 14.414 5.19353C13.2702 5.9066 8.39845 8.68276 6.00272 10.0456C5.85855 9.98774 3.69396 9.11858 2.52767 8.65284C4.6022 7.77976 8.1583 6.28366 11.4702 4.89077C13.2084 4.15976 14.8388 3.47469 16.0685 2.95895C17.1064 2.5236 17.6479 2.29818 17.9066 2.1913ZM15.1504 16.0442H15.1523C15.1523 16.0444 15.1505 16.0497 15.1504 16.05C15.1516 16.0436 15.1494 16.0492 15.1504 16.0442Z" fill="white"/>
</svg>
