<svg width="20" height="20" viewBox="0 0 20 20" fill="none" xmlns="http://www.w3.org/2000/svg">
<path d="M20 3.79789C19.2563 4.12413 18.4637 4.34037 17.6375 4.44537C18.4875 3.93788 19.1363 3.14041 19.4412 2.1792C18.6488 2.65168 17.7738 2.98542 16.8412 3.17166C16.0887 2.37044 15.0162 1.87421 13.8462 1.87421C11.5763 1.87421 9.74875 3.71664 9.74875 5.97531C9.74875 6.3003 9.77625 6.61279 9.84375 6.91028C6.435 6.74404 3.41875 5.11034 1.3925 2.62168C1.03875 3.23541 0.83125 3.93789 0.83125 4.69411C0.83125 6.11406 1.5625 7.37277 2.6525 8.10149C1.99375 8.08899 1.3475 7.89775 0.8 7.59651C0.8 7.60901 0.8 7.62526 0.8 7.64151C0.8 9.63394 2.22125 11.2889 4.085 11.6701C3.75125 11.7614 3.3875 11.8051 3.01 11.8051C2.7475 11.8051 2.4825 11.7901 2.23375 11.7351C2.765 13.3588 4.2725 14.5525 6.065 14.5913C4.67 15.6825 2.89875 16.34 0.98125 16.34C0.645 16.34 0.3225 16.325 0 16.2837C1.81625 17.4549 3.96875 18.1236 6.29 18.1236C13.835 18.1236 17.96 11.8739 17.96 6.45655C17.96 6.2753 17.9538 6.10031 17.945 5.92657C18.7588 5.34909 19.4425 4.62786 20 3.79789Z" fill="white"/>
</svg>
